<?xml version="1.0" standalone="no"?>
<!DOCTYPE svg PUBLIC "-//W3C//DTD SVG 1.1//EN" "http://www.w3.org/Graphics/SVG/1.1/DTD/svg11.dtd" >
<svg xmlns="http://www.w3.org/2000/svg">
<metadata>Generated by IcoMoon</metadata>
<defs>
<font id="icomoon" horiz-adv-x="1024">
<font-face units-per-em="1024" ascent="960" descent="-64" />
<missing-glyph horiz-adv-x="1024" />
<glyph unicode="&#x20;" horiz-adv-x="512" d="" />
<glyph unicode="&#xe900;" glyph-name="up-arrow" d="M1013.768 258.17l-478.18 478.147c-6.832 6.839-14.692 10.264-23.583 10.264s-16.765-3.425-23.601-10.264l-478.14-478.147c-6.85-6.85-10.264-14.71-10.264-23.605 0-8.891 3.425-16.762 10.264-23.597l51.292-51.288c6.839-6.839 14.71-10.257 23.601-10.257s16.762 3.418 23.601 10.257l403.247 403.24 403.262-403.265c6.836-6.839 14.71-10.235 23.587-10.235 8.906 0 16.776 3.418 23.612 10.235l51.299 51.31c6.836 6.836 10.232 14.71 10.232 23.597 0.004 8.898-3.393 16.769-10.228 23.608z" />
<glyph unicode="&#xe901;" glyph-name="down-arrow" d="M1013.768 685.029l-51.299 51.295c-6.836 6.85-14.71 10.264-23.612 10.264-8.88 0-16.751-3.414-23.587-10.264l-403.265-403.244-403.247 403.233c-6.839 6.85-14.71 10.264-23.601 10.264-8.895 0-16.765-3.414-23.601-10.264l-51.292-51.299c-6.85-6.836-10.264-14.706-10.264-23.601 0-8.888 3.425-16.758 10.264-23.594l478.14-478.151c6.836-6.839 14.71-10.257 23.601-10.257s16.751 3.418 23.583 10.257l478.18 478.151c6.836 6.839 10.232 14.71 10.232 23.594 0 8.895-3.396 16.765-10.232 23.615z" />
<glyph unicode="&#xe902;" glyph-name="check-mark" d="M512.003 959.997c-282.32 0-512.003-229.68-512.003-511.997s229.683-511.997 512.003-511.997c282.317 0 511.997 229.68 511.997 511.997s-229.68 511.997-511.997 511.997zM512.003 19.937c-236.039 0-428.069 192.024-428.069 428.063 0 236.035 192.031 428.063 428.069 428.063 236.035 0 428.063-192.027 428.063-428.063 0-236.039-192.027-428.063-428.063-428.063zM733.491 644.509l-303.995-303.998-138.988 138.988c-16.391 16.387-42.961 16.387-59.351 0-16.387-16.391-16.387-42.961 0-59.351l168.663-168.663c8.195-8.192 18.935-12.291 29.676-12.291s21.48 4.099 29.676 12.291l333.671 333.671c16.387 16.391 16.387 42.961 0 59.351-16.391 16.391-42.964 16.391-59.351 0.003z" />
<glyph unicode="&#xe903;" glyph-name="download" horiz-adv-x="1536" d="M976.085 379.123l-171.224-171.224-171.224 171.224h102.788v136.962h136.962v-136.962zM1238.471 573.424c-44.975 221.915-238.462 386.616-470.417 386.616-184.12 0-344.002-103.774-424.347-256.023l-1.258-2.615c-193.587-21.432-342.793-184.114-342.793-381.644 0-211.992 171.854-383.846 383.846-383.846 0.183 0 0.366 0 0.549 0h831.961c176.193 0.061 319.002 142.907 319.002 319.108 0 168.329-130.333 306.216-295.59 318.255l-1.040 0.061zM1216.099 63.978h-832.077c-1.413-0.028-3.079-0.044-4.749-0.044-141.409 0-256.044 114.635-256.044 256.044s114.635 256.044 256.044 256.044c1.67 0 3.336-0.016 4.998-0.048l-0.249 0.004h45.448c43.998 147.946 178.773 253.995 338.317 253.995 193.764 0 350.994-156.42 352.306-349.875l0.001-0.125v-31.972h96.006c106.045 0 192.011-85.966 192.011-192.011s-85.966-192.011-192.011-192.011v0z" />
<glyph unicode="&#xe904;" glyph-name="time" horiz-adv-x="1014" d="M1013.784 762.281l-233.124 197.719-65.877-76.005 233.212-197.719zM299.441 878.887l-65.877 76.005-233.564-192.611 65.877-76.005 233.564 192.611zM532.212 645.675h-76.005v-304.109l238.232-146.99 40.513 60.857-202.563 121.626zM506.848 848.238c-251.956 0-456.207-204.251-456.207-456.207s204.251-456.207 456.207-456.207c251.956 0 456.207 204.251 456.207 456.207v0c0.003 0.629 0.005 1.373 0.005 2.117 0 250.935-203.423 454.358-454.358 454.358-0.621 0-1.242-0.001-1.862-0.004h0.096zM506.848 37.193c-195.971 0-354.838 158.866-354.838 354.838s158.866 354.838 354.838 354.838c195.971 0 354.838-158.866 354.838-354.838v0c0.005-0.683 0.007-1.49 0.007-2.299 0-194.561-157.723-352.283-352.283-352.283-0.87 0-1.739 0.003-2.607 0.009l0.133-0.001z" />
<glyph unicode="&#xe905;" glyph-name="archive" d="M924.467 960h-824.934c-26.641 0-48.333-21.692-48.333-48.333v-446.601h921.6v446.601c0 26.641-21.692 48.333-48.333 48.333zM665.6 712.619c0-32.99-26.829-59.819-59.819-59.819h-187.563c-32.99 0-59.819 26.829-59.819 59.819v25.515c0 9.438 7.629 17.067 17.067 17.067s17.067-7.629 17.067-17.067v-25.515c0-14.165 11.52-25.685 25.685-25.685h187.563c14.165 0 25.685 11.52 25.685 25.685v25.515c0 9.438 7.629 17.067 17.067 17.067s17.067-7.629 17.067-17.067v-25.515zM51.2-15.667c0-26.641 21.692-48.333 48.333-48.333h824.934c26.641 0 48.333 21.692 48.333 48.333v446.601h-921.6v-446.601zM358.4 243.2c0 9.438 7.629 17.067 17.067 17.067s17.067-7.629 17.067-17.067v-25.515c0-14.165 11.52-25.685 25.685-25.685h187.563c14.165 0 25.685 11.52 25.685 25.685v25.515c0 9.438 7.629 17.067 17.067 17.067s17.067-7.629 17.067-17.067v-25.515c0-32.99-26.829-59.819-59.819-59.819h-187.563c-32.99 0-59.819 26.829-59.819 59.819v25.515z" />
<glyph unicode="&#xe906;" glyph-name="badge" d="M826.187 710.148c-13.523 32.625-4.031 97.109-45.484 138.562-41.531 41.523-105.812 31.906-138.547 45.477-30.312 12.586-70.305 65.812-130.156 65.812-59.727 0-100.039-53.312-130.141-65.805-32.625-13.523-97.109-4.031-138.562-45.484-41.531-41.531-31.922-105.836-45.477-138.539-12.594-30.32-65.82-70.312-65.82-130.156s53.234-99.852 65.812-130.133c13.523-32.625 4.031-97.109 45.484-138.562 9.031-9.031 18.992-15.414 28.703-20.070v-315.211c0-29.672 31.297-49.070 57.891-35.773l182.109 91.055 182.109-91.055c26.562-13.273 57.891 6.070 57.891 35.773v315.211c9.711 4.656 19.672 11.039 28.703 20.070 41.531 41.531 31.914 105.844 45.484 138.547 12.57 30.297 65.812 70.305 65.812 130.148 0 59.727-53.328 100.070-65.812 130.133zM672 40.758l-142.109 71.055c-11.266 5.633-24.516 5.633-35.781 0l-142.109-71.055v232.070c11.469-1.711 21.922-3.695 29.844-6.984 30.305-12.578 70.312-65.812 130.156-65.812 59.727 0 100.070 53.328 130.141 65.805 7.93 3.289 18.391 5.281 29.859 6.992zM752.289 480.523c-17.117-41.289-12.602-97.086-28.156-112.633-15.68-15.687-70.93-10.867-112.648-28.156-40.914-16.984-75.508-59.703-99.484-59.703-23.961 0-58.562 42.711-99.5 59.711-41.953 17.391-96.828 12.344-112.633 28.148-15.602 15.609-10.937 71.117-28.164 112.656-16.984 40.898-59.703 75.5-59.703 99.469 0 23.961 42.719 58.562 59.711 99.5 17.117 41.281 12.602 97.078 28.156 112.625 15.602 15.602 71.109 10.937 112.648 28.164 40.914 16.977 75.508 59.695 99.484 59.695 23.961 0 58.562-42.711 99.5-59.703 41.289-17.117 97.086-12.609 112.633-28.156 15.609-15.602 10.937-71.109 28.164-112.648 16.984-40.906 59.703-75.508 59.703-99.477 0-23.961-42.719-58.562-59.711-99.492z" />
<glyph unicode="&#xe907;" glyph-name="checked" d="M512 960c-282.77 0-512-229.23-512-512s229.23-512 512-512c282.77 0 512 229.23 512 512v0c0 282.77-229.23 512-512 512v0zM418.088 184.991l-225.462 225.439 75.093 75.093 150.3-150.187 338.148 338.148 75.093-75.093z" />
<glyph unicode="&#xe908;" glyph-name="close" d="M602.848 448l402.716 402.716c11.55 11.594 18.691 27.587 18.691 45.249 0 35.41-28.705 64.115-64.115 64.115-17.748 0-33.813-7.212-45.422-18.865l-402.999-402.648-402.366 402.646c-11.589 11.589-27.599 18.757-45.284 18.757-35.369 0-64.041-28.672-64.041-64.041 0-17.684 7.168-33.695 18.757-45.284v0l402.716-402.646-402.716-402.716c-11.589-11.589-18.757-27.599-18.757-45.284 0-35.369 28.672-64.041 64.041-64.041 17.684 0 33.695 7.168 45.284 18.757v0l402.366 402.506 402.716-402.716c11.589-11.589 27.599-18.757 45.284-18.757 35.369 0 64.041 28.672 64.041 64.041 0 17.684-7.168 33.695-18.757 45.284v0z" />
<glyph unicode="&#xe909;" glyph-name="exam" d="M941.954 696.236c0 0.21-0.21 0.63-0.21 0.839 0 0.42-0.21 0.63-0.21 1.049 0 0.21-0.21 0.63-0.21 0.839-0.21 0.42-0.21 0.63-0.42 1.049 0 0.21-0.21 0.63-0.21 0.839-0.21 0.63-0.42 1.049-0.839 1.679-0.21 0.21-0.21 0.42-0.42 0.63-0.21 0.42-0.42 0.63-0.63 1.049-0.21 0.21-0.21 0.42-0.42 0.63s-0.21 0.42-0.42 0.63l-189.062 246.557c-0.42 0.42-0.63 0.839-1.049 1.259-0.21 0.21-0.21 0.42-0.42 0.42-0.42 0.63-1.049 1.049-1.679 1.469 0 0 0 0-0.21 0.21-0.63 0.42-1.049 0.839-1.679 1.259-0.21 0.21-0.42 0.21-0.63 0.42-0.42 0.21-0.839 0.63-1.469 0.839-0.21 0-0.42 0.21-0.63 0.21-0.42 0.21-1.049 0.42-1.469 0.63-0.21 0-0.42 0.21-0.63 0.21-0.42 0.21-1.049 0.42-1.469 0.42-0.21 0-0.42 0.21-0.63 0.21-0.63 0.21-1.049 0.21-1.679 0.21-0.21 0-0.42 0-0.63 0-0.839 0-1.469 0.21-2.308 0.21h-629.508c-11.541 0-20.984-9.443-20.984-20.984v-982.033c0-11.541 9.443-20.984 20.984-20.984h818.361c11.541 0 20.984 9.443 20.984 20.984v735.685c0 0.42 0 1.049 0 1.679v0c0 0.21 0 0.42 0 0.63 0 0.42-0.21 0.839-0.21 1.259zM878.584 713.443h-124.852l-0.42 163.252 125.272-163.252zM900.197-22.243h-776.393v940.066h587.541l0.42-225.364c0-11.541 9.443-20.984 20.984-20.984h167.449v-693.718zM212.564 575.79c0-11.541 9.443-20.984 20.984-20.984h558.584c11.541 0 20.984 9.443 20.984 20.984s-9.443 20.984-20.984 20.984h-558.584c-11.541 0-20.984-9.443-20.984-20.984zM233.548 682.807h364.905c11.541 0 20.774 9.443 20.774 20.984s-9.443 20.984-20.984 20.984h-364.695c-11.541 0-20.984-9.443-20.984-20.984s9.443-20.984 20.984-20.984zM233.548 426.807h558.584c11.541 0 20.984 9.443 20.984 20.984s-9.443 20.984-20.984 20.984h-558.584c-11.541 0-20.984-9.443-20.984-20.984s9.443-20.984 20.984-20.984zM598.452 298.807c11.541 0 20.774 9.443 20.774 20.984s-9.443 20.984-20.984 20.984h-364.695c-11.541 0-20.984-9.443-20.984-20.984s9.443-20.984 20.984-20.984h364.905zM778.282 271.948l-176.682-156.118-50.99 68.197c-6.925 9.233-20.144 11.121-29.377 4.197s-11.121-20.144-4.197-29.377l64.63-86.452c3.567-4.826 8.813-7.764 14.689-8.393 0.63-0.21 1.469-0.21 2.098-0.21v0c5.036 0 9.862 1.889 13.849 5.456l193.679 171.226c8.813 7.554 9.652 20.984 1.889 29.587-7.554 8.813-20.984 9.652-29.587 1.889z" />
<glyph unicode="&#xe90a;" d="M512 960c282.77 0 512-229.23 512-512s-229.23-512-512-512c-282.77 0-512 229.23-512 512v0c0 282.77 229.23 512 512 512v0z" />
<glyph unicode="&#xe90b;" d="M440.32 702.134c2.71-5.71 5.318-10.415 8.174-14.948l-0.346 0.589c2.617-3.914 6.531-7.828 9.102-11.742 3.999-4.177 8.255-8.022 12.776-11.545l0.263-0.197c4.422-3.487 9.653-6.18 15.347-7.755l0.309-0.073c4.907-2.348 10.603-4.164 16.576-5.159l0.377-0.052c4.379-0.848 9.414-1.333 14.563-1.333 0.84 0 1.678 0.013 2.512 0.039l-0.122-0.003c0.847-0.035 1.84-0.054 2.839-0.054 4.993 0 9.871 0.492 14.588 1.43l-0.474-0.079c5.402 1.025 10.216 2.836 14.588 5.332l-0.23-0.121h1.297c6.002 2.802 11.137 5.837 15.944 9.3l-0.288-0.197c4.356 3.221 8.195 6.649 11.697 10.396l0.045 0.048 1.297 1.297c3.33 3.477 6.333 7.319 8.927 11.444l0.175 0.298c2.814 3.714 5.047 8.054 6.456 12.75l0.074 0.289c0 1.297 0 1.297 1.297 2.617 2.134 4.839 3.935 10.515 5.12 16.413l0.091 0.54c0.831 5.099 1.305 10.976 1.305 16.964s-0.475 11.865-1.388 17.596l0.083-0.632c-1.533 6.645-3.323 12.306-5.499 17.772l0.288-0.819c-3.872 9.119-9.155 16.912-15.662 23.49l-2.61 2.61c-3.919 3.65-8.174 7.081-12.663 10.198l-0.376 0.247c-5.211 2.617-9.102 5.211-14.359 7.828-4.482 2.137-9.713 3.933-15.17 5.122l-0.486 0.089c-4.379 0.848-9.414 1.333-14.563 1.333-0.84 0-1.678-0.013-2.512-0.039l0.122 0.003c-0.847 0.035-1.84 0.054-2.839 0.054-4.993 0-9.871-0.492-14.588-1.43l0.474 0.079c-5.943-1.279-11.174-3.074-16.104-5.401l0.448 0.19h-1.297c-5.71-2.709-10.415-5.317-14.947-8.174l0.588 0.346c-4.865-3.364-9.12-6.795-13.108-10.508l0.069 0.064c-3.795-3.547-7.223-7.386-10.283-11.514l-0.161-0.228c-2.51-3.944-5.118-8.648-7.458-13.506l-0.37-0.852c-2.137-4.482-3.933-9.713-5.122-15.17l-0.089-0.486c-0.848-4.379-1.333-9.415-1.333-14.565 0-0.84 0.013-1.677 0.039-2.51l-0.003 0.122c-0.034-0.846-0.054-1.839-0.054-2.837 0-4.993 0.492-9.872 1.43-14.59l-0.079 0.474c1.281-7.922 3.125-14.937 5.563-21.668l-0.261 0.824z" />
<glyph unicode="&#xe90c;" glyph-name="date" d="M763.262 743.884c39.243 0 71.031 31.577 71.031 70.89v74.195c0 39.348-31.753 71.031-71.031 71.031s-70.995-31.647-70.995-71.031v-74.23c0.035-39.278 31.753-70.855 70.995-70.855zM1015.596 837.138h-142.975v-36.113c0-59.602-48.42-108.163-108.128-108.163-59.778 0-108.093 48.561-108.093 108.163v36.113h-288.518v-36.113c0-59.602-48.491-108.163-108.163-108.163s-108.128 48.526-108.128 108.163v36.113l-144.276 1.793v-902.932l1009.372 0.211-1.090 900.927zM944.565 7.91h-865.096v576.824h865.166v-576.824h-0.070zM258.593 743.884c39.243 0 71.066 31.577 71.066 70.89v74.195c0 39.383-31.823 71.031-71.066 71.031s-70.96-31.647-70.96-71.031v-74.23c0-39.278 31.682-70.855 70.96-70.855zM368.093 507.339h113.614v-100.287h-113.614v100.287zM551.788 507.339h113.719v-100.287h-113.719v100.287zM722.155 507.339h113.614v-100.287h-113.614v100.287zM368.093 340.804h113.614v-100.216h-113.614v100.216zM551.788 340.804h113.719v-100.216h-113.719v100.216zM722.155 340.804h113.614v-100.216h-113.614v100.216zM368.093 170.963h113.614v-100.216h-113.614v100.216zM187.633 340.804h113.543v-100.216h-113.543v100.216zM187.633 170.963h113.543v-100.216h-113.543v100.216zM551.788 170.963h113.719v-100.216h-113.719v100.216zM722.155 170.963h113.614v-100.216h-113.614v100.216z" />
<glyph unicode="&#xe90d;" d="M621.659 224.677h-30.015v319.602c0.001 0.075 0.001 0.163 0.001 0.251 0 18.6-15.078 33.678-33.678 33.678-0.088 0-0.177 0-0.265-0.001h-136.974c-0.075 0.001-0.163 0.001-0.251 0.001-18.6 0-33.678-15.078-33.678-33.678 0-0.088 0-0.177 0.001-0.265v0.014-70.542c-0.001-0.075-0.001-0.163-0.001-0.251 0-18.6 15.078-33.678 33.678-33.678 0.088 0 0.177 0 0.265 0.001h27.293v-216.565h-27.307c-0.075 0.001-0.163 0.001-0.251 0.001-18.6 0-33.678-15.078-33.678-33.678 0-0.088 0-0.177 0.001-0.265v0.014-70.542c-0.001-0.075-0.001-0.163-0.001-0.251 0-18.6 15.078-33.678 33.678-33.678 0.088 0 0.177 0 0.265 0.001h200.895c0.075-0.001 0.163-0.001 0.251-0.001 18.6 0 33.678 15.078 33.678 33.678 0 0.088 0 0.177-0.001 0.265v-0.014 70.542c0.003 0.166 0.004 0.362 0.004 0.558 0 18.91-15.076 34.299-33.864 34.803l-0.047 0.001z" />
<glyph unicode="&#xe90e;" d="M512 960c282.77 0 512-229.23 512-512s-229.23-512-512-512c-282.77 0-512 229.23-512 512v0c0 282.77 229.23 512 512 512v0z" />
<glyph unicode="&#xe90f;" d="M522.354 221.195c28.029 0.008 51.033 21.516 53.416 48.928l0.014 0.201 36.25 432.856c0.21 2.307 0.33 4.989 0.33 7.699 0 49.705-40.294 89.998-89.998 89.998s-89.998-40.294-89.998-89.998c0-2.71 0.12-5.393 0.354-8.042l-0.024 0.343 36.25-432.856c2.397-27.606 25.388-49.109 53.405-49.129h0.002z" />
<glyph unicode="&#xe910;" glyph-name="open-book" d="M989.636 750.122l-71.78 0.003v74.304c0 17.011-12.447 31.465-29.272 33.982-2.938 0.441-72.866 10.599-157.071-4.723-93.873-17.080-168.739-59.202-219.515-122.88-50.779 63.677-125.645 105.799-219.515 122.88-84.209 15.319-154.137 5.165-157.071 4.723-16.825-2.52-29.272-16.974-29.272-33.982v-74.304h-71.78c-18.973 0-34.361-15.388-34.361-34.364v-647.514c0-11.126 5.385-21.563 14.457-28.010s20.701-8.102 31.206-4.441c2.579 0.893 260.071 88.771 452.076 1.189 9.061-4.134 19.463-4.134 28.524 0 191.467 87.333 449.51-0.303 452.076-1.189 3.682-1.283 7.496-1.914 11.295-1.914 7.044 0 14.015 2.165 19.911 6.351 9.071 6.447 14.457 16.884 14.457 28.010v647.514c-0.003 18.977-15.388 34.364-34.364 34.364zM68.725 114.224v567.177h37.416v-457.613c0-9.985 4.368-19.466 11.922-25.993s17.601-9.454 27.476-7.995c1.896 0.276 151.172 20.77 260.233-54.058-134.344 22.973-268.801-3.6-337.047-21.518zM477.638 166.73c-48.035 43.401-110.602 72.749-185.154 86.312-35.878 6.53-69.163 8.433-95.78 8.433-7.902 0-15.219-0.169-21.835-0.434v531.833h-0.003c66.043 2.979 226.7-4.082 302.772-133.040v-493.104zM546.359 659.831c75.8 128.406 236.709 135.788 302.772 132.958v-531.747c-28.903 1.165-71.094 0.469-117.618-7.999-74.552-13.564-137.119-42.908-185.154-86.312v493.101zM618.111 135.721c109.075 74.872 258.43 54.358 260.292 54.082 9.899-1.486 19.939 1.424 27.517 7.947 7.578 6.53 11.936 16.032 11.936 26.038v457.609h37.416v-567.173c-68.266 17.925-202.779 44.508-337.16 21.497z" />
<glyph unicode="&#xe911;" glyph-name="play-button" d="M102.837-64c-29.001 0-52.513 23.513-52.513 52.513v918.976c0 29.001 23.513 52.511 52.513 52.511l853.334-472.613c0 0 39.385-39.385 0-78.772-39.385-39.383-853.334-472.615-853.334-472.615z" />
<glyph unicode="&#xe912;" glyph-name="notification" d="M273.067 857.6l-68.267 68.267c-117.029-87.771-195.048-224.305-204.8-380.343h97.524c9.752 131.657 73.143 243.81 175.543 312.076zM926.476 545.524h97.524c-9.752 156.038-82.895 292.571-199.924 380.343l-68.267-68.267c97.524-68.267 160.914-180.419 170.667-312.076zM828.952 521.143c0 151.162-102.4 273.067-243.81 307.2v34.133c0 39.010-34.133 73.143-73.143 73.143s-73.143-34.133-73.143-73.143v-34.133c-141.41-34.133-243.81-156.038-243.81-307.2v-268.19l-97.524-97.524v-48.762h828.952v48.762l-97.524 97.524v268.19zM512-39.619c4.876 0 14.629 0 19.505 0 34.133 4.876 58.514 29.257 68.267 58.514 4.876 9.754 9.752 24.381 9.752 39.010h-195.048c0-53.638 43.886-97.524 97.524-97.524z" />
<glyph unicode="&#xe913;" d="M522.354 189.338c-32.261 0-58.414-26.153-58.414-58.414s26.153-58.414 58.414-58.414c32.261 0 58.414 26.153 58.414 58.414v0c0 0.007 0 0.015 0 0.023 0 32.248-26.142 58.391-58.391 58.391-0.008 0-0.016 0-0.024 0h0.001z" />
<glyph unicode="&#xe914;" horiz-adv-x="890" d="M86.413 960h717.232c47.725 0 86.414-38.689 86.414-86.414v0-851.173c0-47.725-38.689-86.414-86.414-86.414v0h-717.232c-47.725 0-86.414 38.689-86.414 86.414v0 851.173c0 47.725 38.689 86.414 86.414 86.414v0z" />
<glyph unicode="&#xe915;" horiz-adv-x="890" d="M808.312 426.224c-0.019 199.357-161.633 360.96-360.992 360.96-99.666 0-189.899-40.39-255.223-105.695l0.001 0.001c-65.284-64.96-105.685-154.876-105.685-254.227 0-0.365 0.001-0.73 0.002-1.094v0.056-170.883c0.147-96.703 78.501-175.056 175.189-175.203h0.014c0.026 0 0.056 0 0.087 0 11.478 0 20.782 9.305 20.782 20.782 0 0.030 0 0.061 0 0.091v-0.005 308.539c0 0.026 0 0.056 0 0.087 0 11.478-9.305 20.782-20.782 20.782-0.030 0-0.061 0-0.091 0h0.005c-0.068 0-0.149 0-0.23 0-53.309 0-101.040-23.885-133.073-61.538l-0.205-0.248v57.595c0 176.308 142.926 319.233 319.233 319.233s319.233-142.926 319.233-319.233v0c0-0.023 0-0.049 0-0.076 0-1.505 0.173-2.969 0.501-4.374l-0.025 0.13c-0.302-1.275-0.475-2.74-0.475-4.244 0-0.027 0-0.054 0-0.080v0.004-57.638c-32.239 37.9-79.97 61.786-133.279 61.786-0.081 0-0.162 0-0.242 0h0.012c-0.026 0-0.056 0-0.087 0-11.478 0-20.782-9.305-20.782-20.782 0-0.030 0-0.061 0-0.091v0.005-308.583c0-0.026 0-0.056 0-0.087 0-11.478 9.305-20.782 20.782-20.782 0.030 0 0.061 0 0.091 0h-0.005c96.812 0.123 175.247 78.633 175.247 175.462 0 0.076 0 0.152 0 0.228v-0.012 170.796c0 0.023 0 0.049 0 0.076 0 1.505-0.173 2.969-0.501 4.374l0.025-0.13c0.285 1.201 0.457 2.585 0.475 4.006v0.012zM240.618 387.338v-263.561c-64.167 10.442-112.556 65.46-112.556 131.781s48.388 121.339 111.786 131.677l0.77 0.104zM654.107 115.394v263.561c64.167-10.442 112.556-65.46 112.556-131.781s-48.388-121.339-111.786-131.677l-0.77-0.104z" />
<glyph unicode="&#xe916;" glyph-name="copy" d="M930.909 75.636v884.364h-698.182v-93.091h605.091v-791.273zM93.091 810.589v-864.815c0-5.398 4.282-9.775 9.588-9.775h678.959c5.353 0 9.635 4.329 9.635 9.775v864.815c0 5.399-4.282 9.775-9.588 9.775h-679.005c-5.306 0-9.588-4.329-9.588-9.775zM186.182 680.727h512v-46.545h-512v46.545zM186.182 541.091h512v-46.545h-512v46.545zM186.182 401.455h512v-46.545h-512v46.545zM186.182 261.818h512v-46.545h-512v46.545zM186.182 122.182h325.818v-46.545h-325.818v46.545z" />
<glyph unicode="&#xe917;" glyph-name="gmail" d="M921.6 857.6h-819.2c-56.32 0-102.4-46.080-102.4-102.4v-614.4c0-56.32 46.080-102.4 102.4-102.4h819.2c56.32 0 102.4 46.080 102.4 102.4v614.4c0 56.32-46.080 102.4-102.4 102.4zM921.6 140.8h-102.4v450.56l-307.2-194.56-307.2 194.56v-450.56h-102.4v614.4h61.44l348.16-215.040 348.16 215.040h61.44v-614.4z" />
<glyph unicode="&#xe918;" glyph-name="share" d="M832.958 309.183c-59.284 0-111.576-28.244-145.74-71.496l-316.881 162.053c4.148 15.472 7.13 31.459 7.13 48.284 0 18.316-3.541 35.56-8.483 52.34l315.483 161.305c33.976-45.209 87.621-74.758 148.536-74.758 103.188 0 186.66 83.472 186.66 186.568 0.002 103.002-83.472 186.522-186.658 186.522-102.955 0-186.52-83.52-186.52-186.52 0-16.872 2.984-32.905 7.178-48.424l-316.835-162.053c-34.21 43.297-86.597 71.634-145.973 71.634-103.095 0-186.52-83.565-186.52-186.613s83.427-186.568 186.52-186.568c61.008 0 114.607 29.642 148.722 74.897l315.342-161.305c-4.941-16.732-8.528-34.117-8.528-52.48 0-103.048 83.565-186.568 186.52-186.568 103.188 0 186.66 83.52 186.66 186.568 0.048 103.141-83.425 186.615-186.613 186.615z" />
<glyph unicode="&#xe919;" glyph-name="sms" d="M921.6 960h-819.2c-56.32 0-102.4-46.080-102.4-102.4v-921.6l204.8 204.8h716.8c56.32 0 102.4 46.080 102.4 102.4v614.4c0 56.32-46.080 102.4-102.4 102.4zM358.4 499.2h-102.4v102.4h102.4v-102.4zM563.2 499.2h-102.4v102.4h102.4v-102.4zM768 499.2h-102.4v102.4h102.4v-102.4z" />
<glyph unicode="&#xe91a;" glyph-name="telegram" d="M18.087 466.278l235.95-88.064 91.327-293.707c5.844-18.811 28.846-25.764 44.114-13.281l131.523 107.22c13.786 11.233 33.423 11.793 47.831 1.335l237.22-172.227c16.333-11.872 39.472-2.922 43.568 16.814l173.776 835.895c4.471 21.559-16.712 39.543-37.239 31.604l-968.346-373.559c-23.897-9.216-23.689-43.049 0.276-52.029zM330.646 425.093l461.135 284.013c8.288 5.089 16.814-6.117 9.697-12.718l-380.57-353.758c-13.377-12.452-22.006-29.116-24.45-47.203l-12.964-96.072c-1.717-12.827-19.736-14.1-23.276-1.686l-49.859 175.189c-5.711 19.982 2.611 41.325 20.285 52.234z" />
<glyph unicode="&#xe91b;" glyph-name="whatsapp" d="M512.128 960h-0.256c-282.304 0-511.872-229.632-511.872-512 0-112 36.096-215.808 97.472-300.096l-63.808-190.208 196.8 62.912c80.96-53.632 177.536-84.608 281.664-84.608 282.304 0 511.872 229.696 511.872 512s-229.568 512-511.872 512zM810.048 236.992c-12.352-34.88-61.376-63.808-100.48-72.256-26.752-5.696-61.696-10.24-179.328 38.528-150.464 62.336-247.36 215.232-254.912 225.152-7.232 9.92-60.8 80.96-60.8 154.432s37.312 109.248 52.352 124.608c12.352 12.608 32.768 18.368 52.352 18.368 6.336 0 12.032-0.32 17.152-0.576 15.040-0.64 22.592-1.536 32.512-25.28 12.352-29.76 42.432-103.232 46.016-110.784 3.648-7.552 7.296-17.792 2.176-27.712-4.8-10.24-9.024-14.784-16.576-23.488s-14.72-15.36-22.272-24.704c-6.912-8.128-14.72-16.832-6.016-31.872 8.704-14.72 38.784-63.808 83.072-103.232 57.152-50.88 103.488-67.136 120.064-74.048 12.352-5.12 27.072-3.904 36.096 5.696 11.456 12.352 25.6 32.832 40 52.992 10.24 14.464 23.168 16.256 36.736 11.136 13.824-4.8 86.976-40.96 102.016-48.448 15.040-7.552 24.96-11.136 28.608-17.472 3.584-6.336 3.584-36.096-8.768-71.040z" />
<glyph unicode="&#xe91c;" horiz-adv-x="1019" d="M296.561 823.15h517.396v-499.235c0-63.004-51.075-114.079-114.079-114.079v0h-494.58v522.050c0 50.403 40.86 91.264 91.264 91.264v0z" />
<glyph unicode="&#xe91d;" horiz-adv-x="1019" d="M745.943 506.625c-0.003 130.846-106.074 236.916-236.92 236.916-65.417 0-124.642-26.513-167.515-69.379v0c-42.846-42.642-69.361-101.661-69.361-166.872 0-0.234 0-0.468 0.001-0.701v0.036-112.186c0.104-63.467 51.525-114.888 114.982-114.992h0.010c7.561 0 13.69 6.129 13.69 13.69v0 202.537c0 7.561-6.129 13.69-13.69 13.69v0c-0.037 0-0.080 0-0.123 0-34.996 0-66.329-15.683-87.354-40.404l-0.135-0.163v37.829c0 115.714 93.805 209.518 209.518 209.518s209.518-93.805 209.518-209.518v0c0-0.006 0-0.013 0-0.021 0-0.963 0.108-1.901 0.313-2.802l-0.016 0.084c-0.189-0.817-0.297-1.754-0.297-2.717 0-0.007 0-0.015 0-0.022v0.001-37.829c-21.161 24.884-52.494 40.567-87.49 40.567-0.043 0-0.087 0-0.13 0h0.007c-7.561 0-13.69-6.129-13.69-13.69v0-202.514c0-7.561 6.129-13.69 13.69-13.69v0c63.467 0.104 114.888 51.525 114.992 114.982v112.173c0 0.006 0 0.013 0 0.021 0 0.963-0.108 1.901-0.313 2.802l0.016-0.084c0.189 0.817 0.297 1.754 0.297 2.717 0 0.007 0 0.015 0 0.022v-0.001zM373.359 480.98v-173.013c-42.165 6.807-73.978 42.942-73.978 86.506s31.813 79.699 73.474 86.439l0.503 0.067zM644.731 302.492v173.013c42.165-6.807 73.978-42.942 73.978-86.506s-31.813-79.699-73.474-86.439l-0.503-0.067z" />
<glyph unicode="&#xe91e;" glyph-name="magnifying-glass" d="M683.785 842.826c-72.535 72.652-172.803 117.596-283.569 117.596-221.298 0-400.696-179.398-400.696-400.696s179.398-400.696 400.696-400.696c85.617 0 164.962 26.852 230.074 72.595l-1.278-0.851c3.545-16.725 11.626-31.182 22.885-42.468l227.475-227.475c15.319-15.319 36.482-24.794 59.858-24.794 46.752 0 84.652 37.9 84.652 84.652 0 23.376-9.475 44.539-24.794 59.858l-227.477 227.586c-11.29 11.22-25.733 19.279-41.884 22.73l-0.555 0.099c44.809 63.836 71.608 143.153 71.608 228.728 0 110.52-44.7 210.6-117.007 283.147l0.011-0.011zM611.971 347.84c-54.133-54.138-128.919-87.623-211.527-87.623-165.204 0-299.129 133.925-299.129 299.129s133.925 299.129 299.129 299.129c82.607 0 157.394-33.485 211.526-87.623v0c54.007-54.159 87.401-128.899 87.401-211.438s-33.394-157.278-87.407-211.445l0.007 0.007z" />
<glyph unicode="&#xe91f;" glyph-name="add-group" d="M1024 104h-168v-168h-80v168h-168v80h168v168h80v-168h168zM598.609 513.125c3.516-15.82 5.391-32.258 5.391-49.125 0-69.102-31.188-131.055-80.211-172.539 1.398-0.555 2.813-1.094 4.211-1.664v-88.398c-42.828 23.336-91.891 36.602-144 36.602v0.078c-0.664-0.016-1.336-0.016-2-0.031v-0.047c-166.523 0-302-135.477-302-302h-80c0 158.742 97.344 295.164 235.461 352.758-50.898 41.469-83.461 104.625-83.461 175.242 0 124.617 101.383 226 226 226 14.813 0 29.289-1.445 43.313-4.18-3.469 15.688-5.313 31.977-5.313 48.688 0 124.336 101.156 225.492 225.492 225.492s225.492-101.156 225.492-225.492c0-69.789-31.875-132.273-81.82-173.664 66.023-26.219 122.93-70.234 164.609-126.844h-107.695c-49.695 44.047-113.953 72-184.547 75.594-5.305-0.375-10.648-0.578-16.039-0.578-14.664 0-29 1.422-42.883 4.109zM496 734.508c0-80.227 65.266-145.492 145.492-145.492 80.219 0 145.492 65.266 145.492 145.492s-65.273 145.492-145.492 145.492c-80.227 0-145.492-65.266-145.492-145.492zM524 464c0 80.508-65.492 146-146 146s-146-65.492-146-146 65.492-146 146-146 146 65.492 146 146z" />
<glyph unicode="&#xe920;" glyph-name="right-design" horiz-adv-x="998" d="M659.521 743.070c-26.018-104.186-156.165-173.567-190.912-190.912-45.944-18.752-99.147-31.174-154.781-34.619l-1.441-0.071v-34.747c3.668-0.058 7.996-0.090 12.332-0.090 121.071 0 236.165 25.588 340.17 71.651l-5.368-2.122c164.894 52.036 338.461-60.652 338.461-104.129s-173.567-156.222-338.461-103.902c-138.876 43.363-260.351 78.111-347.134 69.438v-34.974c57.051-3.437 110.265-15.783 159.627-35.676l-3.405 1.212c43.42-17.629 164.894-78.338 190.912-191.196 26.075-86.557-52.036-208.258-182.24-216.93-52.093 0-156.222 34.691-164.894 121.474 0 43.363 17.345 78.111 34.691 69.438 15.259-8.866 33.58-14.098 53.123-14.098 12.039 0 23.614 1.986 34.416 5.648l-0.755-0.222c21.507 11.013 35.972 33.024 35.972 58.413 0 17.797-7.107 33.934-18.638 45.728l0.012-0.012c-32.178 49.636-80.359 86.543-137.118 103.673l-1.758 0.456v-52.036c0-34.691-60.765-34.691-60.765 0v104.129c-8.673-8.673-8.673-17.345-17.345-17.345-18.396-29.805-30.793-65.183-34.606-103.093l-0.084-1.036c0-17.345 0-26.018-8.673-26.018-40.853 6.689-71.647 41.732-71.647 83.967 0 25.223 10.983 47.881 28.427 63.452l0.083 0.073c-43.363-34.691-147.379 43.363-147.379 69.438s103.789 104.129 147.379 69.381c-15.519 15.858-25.096 37.586-25.096 61.552 0 41.679 28.965 76.592 67.863 85.71l0.596 0.118c8.673 0 17.345-8.673 8.673-26.018-0.9-5.121-1.415-11.017-1.415-17.033 0-31.318 13.947-59.378 35.969-78.308l0.137-0.115c8.673-8.673 8.673-17.345 17.345-17.345v104.129c0 34.691 60.765 34.691 60.765 0v-52.093c60.51 7.443 111.179 43.737 138.401 94.486l0.475 0.97c11.519 11.781 18.627 27.918 18.627 45.715 0 25.39-14.465 47.401-35.604 58.242l-0.368 0.172c-10.047 3.44-21.622 5.425-33.661 5.425-19.543 0-37.863-5.233-53.637-14.373l0.514 0.275c-17.345-8.673-34.691 34.691-34.691 69.438 8.673 95.456 112.802 121.474 164.894 121.474 1.225 0.030 2.668 0.047 4.115 0.047 100.179 0 181.389-81.211 181.389-181.389 0-12.533-1.271-24.77-3.692-36.587l0.2 1.17z" />
<glyph unicode="&#xe921;" glyph-name="left-design" horiz-adv-x="998" d="M338.461 152.93c26.018 104.186 156.165 173.567 190.912 190.912 45.944 18.752 99.147 31.174 154.781 34.619l1.441 0.071v34.691c-3.706 0.059-8.078 0.092-12.458 0.092-121.022 0-236.073-25.567-340.045-71.595l5.369 2.122c-164.894-52.036-338.461 60.652-338.461 104.129s173.567 156.222 338.461 103.902c138.876-43.363 260.351-78.111 347.134-69.438v34.691c-57.081 3.537-110.282 15.978-159.619 35.964l3.397-1.216c-43.363 17.345-164.894 78.111-190.912 190.912-26.075 86.84 52.036 208.541 182.24 217.214 52.093 0 156.222-34.691 164.894-121.474 0-43.363-17.345-78.111-34.691-69.438-15.259 8.866-33.58 14.098-53.123 14.098-12.039 0-23.614-1.986-34.416-5.648l0.755 0.222c-21.507-11.013-35.972-33.024-35.972-58.413 0-17.797 7.107-33.934 18.638-45.728l-0.012 0.012c32.178-49.636 80.359-86.543 137.118-103.673l1.758-0.456v52.093c0 34.691 60.765 34.691 60.765 0v-104.129c8.673 8.673 8.673 17.345 17.345 17.345 18.396 29.805 30.793 65.183 34.606 103.093l0.084 1.036c0 17.345 0 26.018 8.673 26.018 40.894-6.653 71.732-41.715 71.732-83.981 0-25.156-10.925-47.761-28.288-63.328l-0.080-0.070c43.363 34.691 147.379-43.363 147.379-69.438s-104.015-104.299-147.606-69.552c15.519-15.858 25.096-37.586 25.096-61.552 0-41.679-28.965-76.592-67.863-85.71l-0.596-0.118c-8.673 0-17.345 8.673-8.673 26.018 0.9 5.121 1.415 11.017 1.415 17.033 0 31.318-13.947 59.378-35.969 78.308l-0.137 0.115c-8.673 8.673-8.673 17.345-17.345 17.345v-104.129c0-34.691-60.765-34.691-60.765 0v52.093c-60.51-7.443-111.179-43.737-138.401-94.486l-0.475-0.97c-11.519-11.781-18.627-27.918-18.627-45.715 0-25.39 14.465-47.401 35.604-58.242l0.368-0.172c10.047-3.44 21.622-5.425 33.661-5.425 19.543 0 37.863 5.233 53.637 14.373l-0.514-0.275c17.345 8.673 34.691-34.691 34.691-69.438-8.673-95.456-112.802-121.474-164.894-121.474-1.225-0.030-2.668-0.047-4.115-0.047-100.179 0-181.389 81.211-181.389 181.389 0 12.533 1.271 24.77 3.692 36.587l-0.2-1.17z" />
<glyph unicode="&#xe922;" glyph-name="check-form" d="M783.783 417.075v460.454h-687.249v-859.061h316.133c22.68 0 41.234-18.555 41.234-41.234s-18.555-41.234-41.234-41.234h-357.37c-22.68 0-41.234 18.555-41.234 41.234v941.531c0 22.68 18.557 41.234 41.234 41.234h769.717c22.68 0 41.234-18.555 41.234-41.234v-501.691c0-22.68-18.555-41.234-41.234-41.234s-41.232 18.555-41.232 41.234zM996.143 316.736c-17.182 15.121-43.296 13.746-58.416-3.436l-226.106-251.533-113.396 109.273c-16.493 15.807-42.609 15.121-58.416-1.375s-15.121-42.609 1.375-58.416l144.321-138.823c7.559-7.559 17.868-11.684 28.864-11.684 0.686 0 0.686 0 1.375 0 10.995 0.686 21.991 5.498 28.864 13.746l254.283 283.147c15.807 17.868 14.432 43.982-2.748 59.103zM632.587 719.463h-371.113c-22.68 0-41.234-18.555-41.234-41.234s18.555-41.234 41.234-41.234h371.113c22.68 0 41.234 18.555 41.234 41.234s-18.555 41.234-41.234 41.234zM673.824 451.436c0 22.68-18.555 41.234-41.234 41.234h-371.115c-22.68 0-41.234-18.555-41.234-41.234s18.555-41.234 41.234-41.234h371.113c22.68 0 41.237 18.555 41.237 41.234zM261.474 272.751c-22.68 0-41.234-18.555-41.234-41.234s18.555-41.234 41.234-41.234h109.96c22.68 0 41.234 18.555 41.234 41.234s-18.555 41.234-41.234 41.234h-109.96z" />
<glyph unicode="&#xe923;" glyph-name="funds" d="M782.815 521.036c-0.023 0.19-0.037 0.382-0.065 0.57-0.134 0.936-0.313 1.87-0.565 2.792-0.002 0.009-0.007 0.019-0.009 0.030-0.236 0.862-0.537 1.712-0.878 2.553-0.097 0.241-0.204 0.473-0.308 0.709-0.269 0.607-0.568 1.205-0.892 1.793-0.141 0.257-0.278 0.514-0.431 0.767-0.081 0.137-0.146 0.278-0.232 0.415-0.343 0.544-0.718 1.056-1.098 1.564-0.072 0.095-0.13 0.195-0.202 0.287-0.579 0.751-1.205 1.448-1.86 2.108-0.123 0.125-0.257 0.241-0.385 0.361-0.57 0.549-1.161 1.063-1.777 1.548-0.158 0.123-0.31 0.246-0.473 0.364-0.825 0.612-1.675 1.182-2.562 1.675l-341.312 194.010 196.516 123.746 329.455-187.266-138.751-87.371c-10.828-6.816-14.079-21.122-7.261-31.948 6.816-10.828 21.119-14.079 31.948-7.261l171.498 107.99c6.895 4.339 11.002 11.982 10.817 20.128-0.183 8.146-4.629 15.592-11.713 19.618l-375.154 213.245c-7.42 4.221-16.565 4.013-23.793-0.535l-240.838-151.655c-0.049-0.030-0.1-0.063-0.148-0.093l-120.347-75.782c-0.056-0.035-0.111-0.070-0.164-0.104l-241.002-151.759c-6.895-4.339-11.002-11.982-10.817-20.128 0.183-8.146 4.629-15.592 11.713-19.618l375.157-213.245c3.554-2.023 7.502-3.028 11.447-3.028 4.293 0 8.579 1.193 12.344 3.563l171.498 107.992c10.828 6.816 14.079 21.122 7.261 31.948-6.813 10.828-21.122 14.081-31.948 7.261l-159.764-100.602-329.455 187.27 196.519 123.748 351.378-199.73v-264.528c0-8.438 4.585-16.206 11.971-20.283 3.491-1.928 7.346-2.884 11.197-2.884 4.295 0 8.581 1.193 12.344 3.563l120.502 75.88c6.737 4.242 10.824 11.644 10.824 19.604v278.007c0 0.137-0.023 0.266-0.028 0.403-0.014 0.769-0.065 1.538-0.155 2.31zM662.496 206.399v236.042c0 8.333-4.476 16.022-11.72 20.139l-341.511 194.121 76.019 47.871 329.452-187.268-28.846-18.163c-10.828-6.816-14.079-21.122-7.261-31.948 4.402-6.997 11.929-10.826 19.627-10.826 4.216 0 8.488 1.151 12.32 3.565l26.084 16.423v-223.254l-74.165-46.703zM988.487 597.013l-171.498-107.99c-10.828-6.816-14.079-21.122-7.261-31.948 4.402-6.997 11.929-10.826 19.627-10.826 4.216 0 8.488 1.151 12.32 3.565l171.498 107.99c10.828 6.816 14.079 21.122 7.261 31.948-6.816 10.828-21.122 14.081-31.948 7.261zM557.481 325.611l-159.764-100.602-363.098 206.39c-11.116 6.32-25.266 2.437-31.589-8.692-6.322-11.123-2.433-25.266 8.692-31.589l375.157-213.245c3.554-2.023 7.502-3.028 11.447-3.028 4.293 0 8.579 1.193 12.344 3.563l171.498 107.992c10.828 6.816 14.079 21.122 7.261 31.948-6.813 10.831-21.122 14.083-31.948 7.263zM988.487 504.344l-171.498-107.99c-10.828-6.816-14.079-21.122-7.261-31.948 4.402-6.997 11.929-10.826 19.627-10.826 4.216 0 8.488 1.151 12.32 3.565l171.498 107.99c10.828 6.816 14.079 21.122 7.261 31.948-6.816 10.831-21.122 14.081-31.948 7.261zM557.481 232.942l-159.764-100.602-363.098 206.39c-11.116 6.32-25.266 2.437-31.589-8.692-6.322-11.123-2.433-25.266 8.692-31.589l375.157-213.245c3.554-2.023 7.502-3.028 11.447-3.028 4.293 0 8.579 1.193 12.344 3.563l171.498 107.992c10.828 6.816 14.079 21.122 7.261 31.948-6.813 10.833-21.122 14.083-31.948 7.263zM988.487 411.675l-171.498-107.99c-10.828-6.816-14.079-21.122-7.261-31.948 4.402-6.997 11.929-10.826 19.627-10.826 4.216 0 8.488 1.151 12.32 3.565l171.498 107.99c10.828 6.816 14.079 21.122 7.261 31.948-6.816 10.828-21.122 14.079-31.948 7.261zM557.481 140.273l-159.764-100.602-363.098 206.39c-11.116 6.32-25.266 2.437-31.589-8.692-6.322-11.123-2.433-25.266 8.692-31.589l375.157-213.245c3.554-2.023 7.502-3.028 11.447-3.028 4.293 0 8.579 1.193 12.344 3.563l171.498 107.992c10.828 6.816 14.079 21.122 7.261 31.948-6.813 10.831-21.122 14.083-31.948 7.263z" />
<glyph unicode="&#xe924;" glyph-name="mortarboard" d="M964 292.837v411.937l40.5 15.125c11.703 4.367 19.477 15.547 19.5 28.047s-7.711 23.703-19.398 28.117l-482 182c-6.836 2.586-14.367 2.586-21.195 0l-482-182c-11.703-4.414-19.43-15.617-19.406-28.117s7.797-23.68 19.508-28.047l162.492-60.687v-218.711c0-12.266 7.469-23.297 18.859-27.852 99.398-39.766 204.086-59.922 311.14-59.922s211.742 20.156 311.14 59.922c11.391 4.555 18.859 15.586 18.859 27.852v218.711l62 23.156v-389.531c-34.914-12.383-60-45.727-60-84.836 0-23.031 8.711-44.062 22.992-60-14.281-15.937-22.992-36.969-22.992-60v-122c0-16.57 13.43-30 30-30h120c16.57 0 30 13.43 30 30v122c0 23.031-8.711 44.062-22.992 60 14.289 15.937 22.992 36.969 22.992 60 0 39.109-25.078 72.453-60 84.836zM512 897.93l396.664-149.773c-17.562-6.562-379.172-141.601-396.664-148.133-13.211 4.93-368.195 137.5-396.664 148.133zM782 461.086c-174.89-64.82-365.109-64.82-539.999 0v175.719l259.508-96.914c6.766-2.523 14.219-2.523 20.992 0l259.5 96.914zM934 238.001c16.539 0 30-13.461 30-30 0-16.547-13.461-30-30-30s-30 13.453-30 30c0 16.539 13.461 30 30 30zM964-3.999h-60v92c0 16.539 13.461 30 30 30s30-13.461 30-30zM542 748c0-16.57-13.43-30-30-30s-30 13.43-30 30 13.43 30 30 30 30-13.43 30-30z" />
<glyph unicode="&#xe925;" glyph-name="open-book1" d="M582.109 474.382c3.020-5.906 9.028-9.318 15.24-9.318 2.594 0 5.256 0.598 7.732 1.86 1.006 0.512 101.461 51.542 151.005 67.191 8.978 2.85 13.96 12.442 11.11 21.418-2.834 8.978-12.356 13.978-21.418 11.144-52.19-16.504-151.961-67.191-156.193-69.341-8.398-4.266-11.742-14.542-7.476-22.954zM597.349 669.86c2.594 0 5.256 0.598 7.732 1.86 1.006 0.512 101.461 51.542 151.005 67.191 8.978 2.85 13.96 12.442 11.11 21.418-2.834 8.978-12.356 13.978-21.418 11.144-52.19-16.504-151.961-67.191-156.193-69.341-8.396-4.266-11.742-14.54-7.476-22.954 3.020-5.904 9.028-9.318 15.24-9.318zM1006.93 703.994c-9.438 0-17.066-7.646-17.066-17.066v-665.595c0-28.228-22.972-51.2-51.2-51.2h-409.597v39.27c24.884 8.704 89.701 28.996 153.599 28.996 148.667 0 249.616-32.922 250.622-33.262 5.136-1.706 10.872-0.854 15.36 2.356 4.454 3.208 7.082 8.362 7.082 13.842v750.924c0 8.004-5.546 14.934-13.364 16.658 0 0-13.38 2.986-36.25 7.186-9.234 1.706-18.158-4.438-19.866-13.688-1.706-9.284 4.42-18.176 13.688-19.882 8.722-1.604 16.026-3.020 21.658-4.148v-714.37c-38.674 10.138-124.551 28.518-238.932 28.518-74.359 0-147.403-24.422-170.001-32.7-20.088 8.874-80.809 32.7-154.265 32.7-117.555 0-214.39-19.388-255.998-29.236v715.754c34.082 8.38 134.741 30.276 255.998 30.276 62.226 0 115.591-19.37 136.533-28.126v-671.603c0-6.144 3.31-11.828 8.652-14.848 5.342-3.038 11.93-2.952 17.204 0.222 1.69 1.006 170.785 102.007 320.867 152.029 6.98 2.338 11.674 8.84 11.674 16.196v699.729c0 5.598-2.748 10.838-7.356 14.028-4.574 3.192-10.444 3.926-15.718 1.962-136.549-51.216-274.718-137.197-276.102-138.051-7.988-5-10.428-15.53-5.428-23.518 4.984-7.988 15.514-10.428 23.518-5.428 1.262 0.802 121.463 75.587 246.952 126.053v-662.557c-116.497-40.482-238.13-106.581-290.132-136.173v653.017c0 6.468-3.652 12.374-9.438 15.274-2.936 1.45-72.873 35.926-161.227 35.926-154.213 0-272.774-33.366-277.758-34.798-7.322-2.082-12.374-8.79-12.374-16.402v-750.928c0-5.342 2.526-10.394 6.776-13.62 3.004-2.27 6.622-3.448 10.292-3.448 1.57 0 3.14 0.222 4.676 0.666 1.178 0.324 119.193 33.468 268.388 33.468 62.396 0 115.711-19.422 136.533-28.142v-40.124h-409.597c-28.228 0-51.2 22.972-51.2 51.2v665.595c0 9.42-7.646 17.066-17.066 17.066s-17.066-7.646-17.066-17.066v-665.595c0-47.052 38.28-85.333 85.333-85.333h853.327c47.052 0 85.333 38.28 85.333 85.333v665.595c-0.002 9.422-7.63 17.068-17.068 17.068zM582.109 576.781c3.020-5.906 9.028-9.318 15.24-9.318 2.594 0 5.256 0.598 7.732 1.86 1.006 0.512 101.461 51.542 151.005 67.191 8.978 2.85 13.96 12.442 11.11 21.418-2.834 8.978-12.356 13.978-21.418 11.144-52.19-16.504-151.961-67.191-156.193-69.341-8.398-4.266-11.742-14.542-7.476-22.954zM582.109 371.983c3.020-5.906 9.028-9.318 15.24-9.318 2.594 0 5.256 0.598 7.732 1.86 1.006 0.512 101.461 51.542 151.005 67.191 8.978 2.85 13.96 12.442 11.11 21.418-2.834 8.978-12.356 13.978-21.418 11.144-52.19-16.504-151.961-67.191-156.193-69.341-8.398-4.266-11.742-14.542-7.476-22.954zM413.493 643.27c-105.385 24.73-225.142-6.776-230.176-8.124-9.096-2.44-14.506-11.792-12.066-20.906 2.048-7.628 8.942-12.646 16.47-12.646 1.468 0 2.952 0.188 4.438 0.58 1.144 0.324 116.445 30.652 213.554 7.868 9.13-2.134 18.364 3.55 20.514 12.732 2.148 9.164-3.552 18.346-12.734 20.496zM413.493 540.871c-105.385 24.712-225.142-6.776-230.176-8.124-9.096-2.44-14.506-11.794-12.066-20.906 2.048-7.628 8.942-12.646 16.47-12.646 1.468 0 2.952 0.188 4.438 0.58 1.144 0.324 116.445 30.652 213.554 7.868 9.13-2.134 18.364 3.55 20.514 12.732 2.148 9.164-3.552 18.346-12.734 20.496zM582.109 269.583c3.020-5.906 9.028-9.318 15.24-9.318 2.594 0 5.256 0.598 7.732 1.86 1.006 0.512 101.461 51.542 151.005 67.191 8.978 2.85 13.96 12.442 11.11 21.418-2.834 8.976-12.356 13.978-21.418 11.144-52.19-16.504-151.961-67.191-156.193-69.341-8.398-4.266-11.742-14.542-7.476-22.954zM413.493 438.472c-105.385 24.712-225.142-6.758-230.176-8.124-9.096-2.44-14.506-11.794-12.066-20.906 2.048-7.628 8.942-12.664 16.47-12.664 1.468 0 2.952 0.204 4.438 0.598 1.144 0.324 116.445 30.652 213.554 7.868 9.13-2.134 18.364 3.55 20.514 12.732 2.148 9.164-3.552 18.346-12.734 20.496zM413.493 233.674c-105.385 24.73-225.142-6.776-230.176-8.124-9.096-2.44-14.506-11.794-12.066-20.906 2.048-7.628 8.942-12.664 16.47-12.664 1.468 0 2.952 0.204 4.438 0.598 1.144 0.324 116.445 30.652 213.554 7.868 9.13-2.116 18.364 3.55 20.514 12.732 2.148 9.164-3.552 18.346-12.734 20.496zM413.493 336.073c-105.385 24.73-225.142-6.758-230.176-8.124-9.096-2.44-14.506-11.794-12.066-20.906 2.048-7.628 8.942-12.664 16.47-12.664 1.468 0 2.952 0.204 4.438 0.598 1.144 0.324 116.445 30.652 213.554 7.868 9.13-2.134 18.364 3.55 20.514 12.732 2.148 9.164-3.552 18.346-12.734 20.496z" />
<glyph unicode="&#xe926;" glyph-name="telephone" d="M778.514 282.604c-33.454 33.028-75.219 33.028-108.46 0-25.357-25.144-50.714-50.288-75.645-75.858-6.819-7.032-12.572-8.523-20.882-3.836-16.408 8.95-33.88 16.194-49.649 25.996-73.514 46.239-135.096 105.69-189.645 172.599-27.062 33.241-51.14 68.826-67.974 108.886-3.409 8.097-2.77 13.424 3.836 20.030 25.357 24.505 50.075 49.649 75.006 74.793 34.733 34.946 34.733 75.858-0.213 111.017-19.817 20.030-39.634 39.634-59.451 59.664-20.456 20.456-40.699 41.125-61.368 61.368-33.454 32.602-75.219 32.602-108.46-0.213-25.57-25.144-50.075-50.927-76.071-75.645-24.079-22.8-36.224-50.714-38.781-83.316-4.049-53.058 8.95-103.133 27.275-151.929 37.503-101.002 94.61-190.711 163.862-272.962 93.544-111.23 205.201-199.234 335.822-262.733 58.811-28.553 119.754-50.501 186.023-54.124 45.6-2.557 85.234 8.95 116.984 44.535 21.735 24.292 46.239 46.452 69.253 69.679 34.094 34.52 34.307 76.284 0.426 110.378-40.486 40.699-81.185 81.185-121.884 121.671zM737.814 452.432l78.628 13.424c-12.359 72.236-46.452 137.653-98.232 189.645-54.763 54.763-124.015 89.283-200.3 99.937l-11.080-79.054c59.024-8.31 112.722-34.946 155.126-77.35 40.060-40.060 66.269-90.774 75.858-146.602zM860.764 794.22c-90.774 90.774-205.627 148.094-332.412 165.78l-11.080-79.054c109.526-15.342 208.823-64.991 287.238-143.193 74.367-74.367 123.163-168.337 140.849-271.683l78.628 13.424c-20.669 119.754-77.137 228.427-163.223 314.726z" />
<glyph unicode="&#xe927;" glyph-name="sign-in" d="M64.955 425.075h609.8l-157.253-160.141c-11.936-11.921-11.936-32.737-0.015-44.674 5.976-5.976 13.786-9.69 21.626-9.69 7.825 0 15.635 2.613 21.611 8.589l195.859 195.645c5.731 5.731 8.956 13.419 8.956 21.519s-3.225 15.834-8.956 21.565l-9.292 9.277c-2.109 3.057-4.768 5.716-7.84 7.81l-178.711 178.711c-11.936 11.936-31.301 11.936-43.222 0-11.936-11.936-11.936-28.366 0-40.318l130.094-127.159h-582.656c-16.873 0-30.567-13.694-30.567-30.567s13.694-30.567 30.567-30.567zM989.612 53.974v760.205c0 73.269-59.728 145.821-133.685 145.821h-397.388c-72.505 0-141.404-69.938-141.404-145.821v-180.958c0-16.873 13.694-30.567 30.567-30.567s30.567 13.694 30.567 30.567v180.958c0 42.015 41.587 84.686 80.269 84.686h397.388c40.456 0 72.551-44.888 72.551-84.686v-760.205c0-40.7-33.67-56.84-72.551-56.84h-397.388c-36.146 0-80.269 13.557-80.269 56.84v181.875c0 16.873-13.694 30.567-30.567 30.567s-30.567-13.694-30.567-30.567v-181.875c0-71.726 63.901-117.974 141.404-117.974h397.388c79.245 0 133.685 48.556 133.685 117.974z" />
<glyph unicode="&#xe928;" glyph-name="sign-out" d="M417.961 92.738c-1.308 3.481-1.759 6.441-1.315 8.836 0.441 2.379-1.080 4.351-4.568 5.869s-5.229 2.724-5.229 3.584c0 0.869-2.5 1.526-7.512 1.956-5.009 0.437-7.509 0.659-7.509 0.659h-203.751c-28.734 0-53.335 10.222-73.8 30.699-20.461 20.463-30.69 45.057-30.69 73.786v459.759c0 28.734 10.227 53.326 30.69 73.789 20.465 20.465 45.066 30.701 73.8 30.701h208.977c5.661 0 10.113 1.404 13.386 4.241 3.26 2.829 5.433 7.077 6.526 12.736 1.089 5.659 1.745 10.769 1.965 15.341 0.215 4.568 0.11 10.341-0.329 17.306-0.432 6.963-0.65 11.316-0.65 13.066 0 5.659-2.070 10.547-6.203 14.692-4.138 4.126-9.033 6.197-14.692 6.197h-208.979c-51.805 0-96.107-18.395-132.899-55.183-36.783-36.788-55.178-81.083-55.178-132.892v-459.749c0-51.805 18.395-96.111 55.178-132.885 36.792-36.806 81.094-55.201 132.899-55.201h208.986c5.661 0 10.115 1.423 13.386 4.241 3.26 2.834 5.433 7.077 6.526 12.743 1.089 5.652 1.745 10.787 1.965 15.341 0.215 4.572 0.11 10.334-0.329 17.299-0.437 6.972-0.65 11.323-0.65 13.070zM1011.591 477.388l-355.262 355.273c-8.267 8.262-18.066 12.407-29.386 12.407s-21.119-4.145-29.395-12.407c-8.273-8.273-12.407-18.079-12.407-29.393v-188.082h-292.569c-11.327 0-21.119-4.145-29.393-12.407-8.273-8.273-12.407-18.073-12.407-29.393v-250.779c0-11.318 4.133-21.117 12.407-29.386 8.283-8.257 18.073-12.414 29.393-12.414h292.572v-188.080c0-11.311 4.133-21.119 12.407-29.386 8.273-8.273 18.073-12.416 29.395-12.416 11.318 0 21.117 4.142 29.386 12.416l355.26 355.257c8.273 8.28 12.409 18.066 12.409 29.388 0 11.318-4.136 21.126-12.409 29.4z" />
<glyph unicode="&#xe929;" glyph-name="certificate" d="M1023.581 320.49c-2.129 13.516-12.148 24.433-25.426 27.718-2.226 0.549-182.198 45.754-314.425 127.127l-144.38 144.413c-81.283 132.163-126.596 312.189-127.145 314.407-3.283 13.281-14.205 23.3-27.718 25.428-13.511 2.129-26.986-4.046-34.194-15.673l-43.592-70.302c-24.714 22.281-61.886 32.856-92.259 24.834l-2.484-0.661c-107.636-32.971-175.988-101.323-208.959-208.957l-0.659-2.486c-7.558-33.548 3.553-71.216 28.308-95.973 1.861-1.861 3.814-3.658 5.799-5.34l0.75-0.615c81.873-65.424 161.599-134.621 238.048-206.534-68.505-37.972-128.056-56.85-173.563-54.826-7.579 0.339-14.496-4.296-17.071-11.433s-0.214-15.119 5.835-19.703l51.39-38.952-58.31-55.942c-5.006-4.804-6.665-12.127-4.219-18.616 0.888-2.359 2.251-4.434 3.962-6.144 3.004-3.007 7.076-4.865 11.489-5.059 51.5-2.29 108.159 8.763 169.336 32.9-24.139-61.177-35.189-117.833-32.9-169.333 0.197-4.413 2.057-8.487 5.062-11.492 1.71-1.71 3.791-3.073 6.147-3.962 6.489-2.445 13.814-0.791 18.616 4.214l55.944 58.315 38.947-51.398c4.584-6.042 12.564-8.411 19.701-5.827 7.134 2.576 11.767 9.495 11.43 17.071-2.022 45.507 16.857 105.060 54.831 173.571 71.951-76.485 141.151-156.211 206.537-238.058l0.62-0.766c1.677-1.976 3.469-3.921 5.325-5.784 24.755-24.755 62.428-35.871 95.978-28.318l2.496 0.661c107.641 32.987 175.99 101.336 208.954 208.964 0 0 17.957 54.157-24.173 94.738l70.302 43.587c11.624 7.221 17.799 20.691 15.67 34.204zM367.802 843.083c6.754-21.178 15.080-45.711 24.943-72.074-13.467 15.828-26.815 31.751-40.011 47.776l15.068 24.298zM334.792 415.19c-81.569 77.421-166.911 151.833-254.675 221.987-0.465 0.406-0.927 0.837-1.376 1.286-8.002 8.002-13.452 21.367-10.261 31.899 26.541 85.365 76.576 135.402 161.949 161.946 9.656 3.221 23.534 0.564 33.183-11.637 5.35-6.693 10.731-13.37 16.13-20.037l10.33-12.671c62.3-76.273 127.742-150.57 195.52-221.977l-150.799-150.797zM896.304 166.429c-26.534-85.36-76.566-135.402-161.936-161.949-10.455-2.269-23.907 2.264-31.909 10.264-0.447 0.452-0.881 0.904-1.279 1.366-70.106 87.734-144.518 173.081-221.982 254.68l150.794 150.792c71.418-67.798 145.72-133.238 221.99-195.533l12.656-10.315c6.662-5.399 13.347-10.785 20.048-16.132 0.462-0.401 0.919-0.83 1.366-1.279 7.992-7.995 13.189-21.658 10.254-31.894zM882.78 288.734c-16.020 13.197-31.95 26.539-47.784 40.016 26.368-9.863 50.905-18.189 72.086-24.946l-24.303-15.070z" />
<glyph unicode="&#xe92a;" glyph-name="about" d="M511.978 960c-282.732 0-511.978-229.246-511.978-511.978s229.246-512.022 511.978-512.022 512.022 229.289 512.022 512.022-229.289 511.978-512.022 511.978zM618.561 166.503c-26.353-10.403-47.332-18.291-63.065-23.752-15.69-5.461-33.938-8.192-54.7-8.192-31.901 0-56.737 7.802-74.422 23.362s-26.483 35.282-26.483 59.251c0 9.319 0.65 18.855 1.95 28.564 1.344 9.709 3.468 20.632 6.372 32.898l32.985 116.508c2.904 11.183 5.418 21.802 7.412 31.684 1.994 9.969 2.947 19.115 2.947 27.437 0 14.824-3.077 25.226-9.189 31.078-6.198 5.851-17.858 8.712-35.239 8.712-8.495 0-17.251-1.257-26.223-3.901-8.886-2.731-16.601-5.201-22.929-7.629l8.712 35.889c21.585 8.799 42.26 16.341 61.982 22.582 19.721 6.328 38.359 9.449 55.914 9.449 31.684 0 56.13-7.715 73.338-22.972 17.121-15.3 25.746-35.195 25.746-59.641 0-5.071-0.607-14-1.777-26.743-1.17-12.786-3.381-24.446-6.588-35.152l-32.811-116.162c-2.687-9.319-5.071-19.982-7.238-31.901-2.124-11.92-3.164-21.022-3.164-27.133 0-15.43 3.424-25.963 10.359-31.554 6.848-5.591 18.855-8.409 35.845-8.409 8.019 0 16.991 1.43 27.133 4.204 10.056 2.774 17.338 5.245 21.932 7.368l-8.799-35.845zM612.753 637.998c-15.3-14.217-33.722-21.325-55.263-21.325-21.499 0-40.050 7.108-55.48 21.325-15.344 14.217-23.102 31.511-23.102 51.709 0 20.155 7.802 37.492 23.102 51.839 15.43 14.39 33.982 21.542 55.48 21.542 21.542 0 40.006-7.152 55.263-21.542 15.3-14.347 22.972-31.684 22.972-51.839 0-20.242-7.672-37.492-22.972-51.709z" />
<glyph unicode="&#xe92b;" glyph-name="open-book2" d="M156.641 839.157c-0.028 0-0.059 0-0.086 0-9.685 0-18.794-3.775-25.672-10.637-6.954-6.937-10.785-16.174-10.785-26.007v-549.462c0-20.149 16.456-36.581 36.688-36.633 85.292-0.203 228.191-17.98 326.771-121.143v575.028c0 6.83-1.745 13.247-5.037 18.556-80.91 130.3-236.393 150.098-321.878 150.298zM903.905 253.051v549.466c0 9.833-3.831 19.070-10.785 26.007-6.878 6.861-15.994 10.637-25.669 10.637-0.031 0-0.062 0-0.090 0-85.482-0.203-240.965-20.001-321.878-150.301-3.293-5.31-5.034-11.726-5.034-18.556v-575.024c98.58 103.162 241.479 120.939 326.771 121.143 20.228 0.052 36.685 16.484 36.685 36.63zM987.363 712.443h-26.569v-459.391c0-51.445-41.915-93.395-93.439-93.522-72.346-0.172-191.633-14.319-276.115-94.277 146.112 35.775 300.14 12.519 387.921-7.485 10.961-2.496 22.287 0.083 31.068 7.082 8.751 6.982 13.771 17.418 13.771 28.62v582.337c0.003 20.201-16.436 36.637-36.637 36.637zM63.205 253.051v459.391h-26.569c-20.197 0-36.637-16.436-36.637-36.637v-582.327c0-11.205 5.020-21.639 13.771-28.62 8.775-6.996 20.090-9.585 31.068-7.082 87.782 20.008 241.813 43.26 387.918 7.485-84.479 79.955-203.766 94.098-276.112 94.27-51.521 0.124-93.439 42.074-93.439 93.519z" />
<glyph unicode="&#xe92c;" glyph-name="folder" d="M238.933 558.933c-4.335 0-8.175-2.935-9.301-7.117l-195.499-487.817v-17.067c0-12.527-0.802-17.067 9.643-17.067h763.887c19.729 0 37.103 13.295 41.813 30.942l174.524 481.058c0 0 0 10.667 0 17.067h-785.067zM217.276 593.067h704.324v106.974c0 25.719-20.924 46.626-46.626 46.626h-422.451l-85.333 119.467h-320.563c-25.702 0-46.626-20.924-46.626-46.626v-713.318l175.479 455.97c4.693 17.613 22.067 30.908 41.796 30.908z" />
<glyph unicode="&#xe92d;" glyph-name="score" d="M511.938 744.055c-100.047 0-181.445-81.39-181.445-181.437 0-100.054 81.398-181.445 181.445-181.445s181.437 81.39 181.437 181.445c0 100.047-81.39 181.437-181.437 181.437zM889.866 439.821l-55.023 122.797 55.023 122.797-116.687 67.008-27.664 131.687-133.797-14.383-99.781 90.273-99.789-90.273-133.789 14.375-27.664-131.687-116.695-67 55.023-122.797-55.023-122.797 116.695-67.008 14.984-71.344-124.562-264.679 130-1.703 84.172-99.086 122.437 260.179 34.211-30.945 34.203 30.945 122.445-260.179 84.164 99.086 130 1.703-124.562 264.679 14.992 71.344zM511.938 321.181c-133.133 0-241.437 108.304-241.437 241.437s108.304 241.437 241.437 241.437c133.125 0 241.437-108.312 241.437-241.437 0-133.133-108.312-241.437-241.437-241.437z" />
<glyph unicode="&#xe92e;" glyph-name="user-menu" d="M749.449 722.551c0-131.14-106.31-237.449-237.449-237.449s-237.449 106.31-237.449 237.449c0 131.14 106.31 237.449 237.449 237.449s237.449-106.31 237.449-237.449zM512 366.377c-237.691 0-430.377-192.686-430.377-430.377h860.754c0 237.691-192.686 430.377-430.377 430.377z" />
<glyph unicode="&#xe92f;" glyph-name="soroush" horiz-adv-x="994" d="M813.566-64v0l-126.95 55.035c-0.973-0.25-23.944-6.424-56.62-12.459-36.47-7.314-78.681-11.819-121.83-12.452l-0.532-0.006c-3.615 0-7.203 0-10.707 0-0.027 0-0.060 0-0.092 0-35.406 0-69.953 3.676-103.28 10.667l3.258-0.572c-67.411 14.085-127.010 40.061-179.373 75.848l1.698-1.096c-79.358 54.041-141.259 128.342-178.962 215.547l-1.243 3.23c-11.545 26.487-21.493 57.69-28.275 90.056l-0.564 3.216c-6.416 30.097-10.090 64.676-10.090 100.114s3.674 70.017 10.662 103.378l-0.572-3.264c14.081 67.421 40.058 127.031 75.848 179.401l-1.096-1.699c54.009 79.304 128.249 141.172 215.383 178.878l3.227 1.243c26.487 11.545 57.69 21.493 90.057 28.275l3.216 0.564c30.097 6.416 64.676 10.090 100.114 10.090s70.017-3.674 103.378-10.662l-3.264 0.572c67.411-14.085 127.010-40.061 179.373-75.848l-1.698 1.096c79.26-54.022 141.090-128.26 178.768-215.381l1.243-3.229c11.58-26.486 21.564-57.685 28.381-90.050l0.568-3.223c6.419-30.070 10.095-64.617 10.095-100.022 0-0.032 0-0.065 0-0.097v0.005c0.033-2.304 0.052-5.024 0.052-7.748 0-32.518-2.699-64.405-7.886-95.45l0.464 3.362c-4.314-25.101-9.933-46.965-17.104-68.113l0.919 3.122c-9.12-27.148-19.52-50.352-31.845-72.33l1.088 2.111c-23.342-41.718-49.451-77.761-79.205-110.427l0.42 0.468c-12.272-13.709-25.068-26.241-38.64-37.894l-0.543-0.455-7.87-143.803zM246.364 244.351v0c7.064-8.663 14.111-16.432 21.539-23.819l0.014-0.014c15.645-15.966 33.168-29.995 52.237-41.757l1.185-0.68c26.9-16.999 58.090-30.512 91.333-38.851l2.218-0.471c21.267-3.759 45.778-5.931 70.788-5.979h0.043c2.527-0.094 5.495-0.148 8.476-0.148 34.76 0 67.811 7.32 97.694 20.503l-1.551-0.61c54.999 26.112 99.882 65.87 131.455 114.995l0.751 1.248c14.907 32.341 23.6 70.177 23.6 110.043 0 1.065-0.006 2.13-0.019 3.192l0.001-0.162v1.613c0.038 1.436 0.059 3.127 0.059 4.823 0 31.596-7.436 61.455-20.653 87.922l0.516-1.141c-14.173 35.242-32.867 65.598-55.805 92.19l0.353-0.418c-22.74 27.568-42.584 58.872-58.275 92.503l-1.126 2.688c-2.127 8.171-3.349 17.55-3.349 27.216 0 12.204 1.947 23.953 5.548 34.954l-0.225-0.794c4.196 11.129 10.35 20.645 18.117 28.574l-0.013-0.014c3.532 3.76 7.36 7.156 11.476 10.183l0.231 0.162c-3.472 0.382-7.497 0.599-11.574 0.599-0.653 0-1.305-0.006-1.956-0.017l0.098 0.001c-5.284 0-11.124-0.195-17.214-0.584-20.408-1.042-39.603-4.305-57.954-9.565l1.807 0.443c-1.947-0.834-4.060-1.669-6.313-2.586-35.229-12.783-64.145-35.897-83.846-65.646l-0.388-0.624c-25.577-33.853-40.966-76.645-40.966-123.033 0-1.72 0.021-3.435 0.063-5.145l-0.005 0.254c1.358-22.756 6.189-43.997 13.974-63.75l-0.487 1.401c3.276-8.81 6.751-20.311 9.629-32.046l0.494-2.382 0.445-2.002c7.774-25.542 12.25-54.899 12.25-85.301 0-9.847-0.47-19.584-1.387-29.191l0.095 1.224c-4.392-15.382-9.895-28.716-16.686-41.251l0.528 1.066c-8.496-15.59-19.41-28.757-32.398-39.505l-0.223-0.179c-8.324-6.979-17.604-13.422-27.446-18.988l-0.92-0.478c-10.205-5.781-22.154-9.841-34.87-11.437l-0.475-0.049c-10.861-1.359-23.491-2.165-36.297-2.224h-0.078c-1.158-0.029-2.522-0.046-3.889-0.046-16.45 0-32.34 2.394-47.342 6.852l1.174-0.299c-5.498 1.563-10.305 3.795-14.659 6.658l0.198-0.122z" />
</font>
</defs>
</svg>
